<?xml version="1.0" encoding="UTF-8" standalone="no"?>
<svg
   xmlns:dc="http://purl.org/dc/elements/1.1/"
   xmlns:cc="http://creativecommons.org/ns#"
   xmlns:rdf="http://www.w3.org/1999/02/22-rdf-syntax-ns#"
   xmlns:svg="http://www.w3.org/2000/svg"
   xmlns="http://www.w3.org/2000/svg"
   xmlns:sodipodi="http://sodipodi.sourceforge.net/DTD/sodipodi-0.dtd"
   xmlns:inkscape="http://www.inkscape.org/namespaces/inkscape"
   viewBox="0 -256 1850 1850"
   id="svg2989"
   version="1.1"
   inkscape:version="0.48.3.1 r9886"
   width="100%"
   height="100%"
   sodipodi:docname="bell_font_awesome.svg">
  <metadata
     id="metadata2999">
    <rdf:RDF>
      <cc:Work
         rdf:about="">
        <dc:format>image/svg+xml</dc:format>
        <dc:type
           rdf:resource="http://purl.org/dc/dcmitype/StillImage" />
      </cc:Work>
    </rdf:RDF>
  </metadata>
  <defs
     id="defs2997" />
  <sodipodi:namedview
     pagecolor="#ffffff"
     bordercolor="#666666"
     borderopacity="1"
     objecttolerance="10"
     gridtolerance="10"
     guidetolerance="10"
     inkscape:pageopacity="0"
     inkscape:pageshadow="2"
     inkscape:window-width="640"
     inkscape:window-height="480"
     id="namedview2995"
     showgrid="false"
     inkscape:zoom="0.13169643"
     inkscape:cx="896"
     inkscape:cy="896"
     inkscape:window-x="0"
     inkscape:window-y="25"
     inkscape:window-maximized="0"
     inkscape:current-layer="svg2989" />
  <g
     transform="matrix(1,0,0,-1,83.525424,1313.0508)"
     id="g2991">
    <path
       d="m 848,-160 q 0,16 -16,16 -59,0 -101.5,42.5 Q 688,-59 688,0 688,16 672,16 656,16 656,0 656,-73 707.5,-124.5 759,-176 832,-176 q 16,0 16,16 z M 183,128 H 1481 Q 1317,309 1234.5,539.5 1152,770 1152,1024 q 0,256 -320,256 -320,0 -320,-256 Q 512,770 429.5,539.5 347,309 183,128 z m 1481,0 q 0,-52 -38,-90 -38,-38 -90,-38 h -448 q 0,-106 -75,-181 -75,-75 -181,-75 -106,0 -181,75 -75,75 -75,181 H 128 Q 76,0 38,38 0,76 0,128 190,289 287,525.5 384,762 384,1024 q 0,165 96,262 96,97 264,117 -8,18 -8,37 0,40 28,68 28,28 68,28 40,0 68,-28 28,-28 28,-68 0,-19 -8,-37 168,-20 264,-117 96,-97 96,-262 0,-262 97,-498.5 Q 1474,289 1664,128 z"
       id="path2993"
       inkscape:connector-curvature="0"
       style="fill:currentColor" />
  </g>
</svg>
